<svg width="50" height="50" viewBox="0 0 50 50" fill="none" xmlns="http://www.w3.org/2000/svg">
<path d="M22.6042 0C21.1615 0 19.7206 0.467396 18.5284 1.40294L1.72719 14.5887C1.43422 14.819 1.22051 15.1344 1.11573 15.4912C1.01095 15.848 1.0203 16.2285 1.14248 16.5797C1.26466 16.931 1.49362 17.2357 1.79755 17.4514C2.10148 17.6672 2.46532 17.7833 2.83854 17.7837H42.3698C42.743 17.7833 43.1069 17.6672 43.4108 17.4514C43.7147 17.2357 43.9437 16.931 44.0659 16.5797C44.188 16.2285 44.1974 15.848 44.0926 15.4912C43.9878 15.1344 43.7741 14.819 43.4811 14.5887L26.6822 1.40294C25.4901 0.467396 24.0469 0 22.6042 0ZM22.6042 7.04498C23.9279 7.04498 25 8.11289 25 9.43137C25 10.7498 23.9279 11.8178 22.6042 11.8178C21.2805 11.8178 20.2083 10.7498 20.2083 9.43137C20.2083 8.11289 21.2805 7.04498 22.6042 7.04498ZM5.23438 20.1701V38.0681C2.9224 38.0681 1.04167 39.9414 1.04167 42.2442C1.04167 44.5471 2.9224 46.4204 5.23438 46.4204H20.2083V38.0681H16.6146V20.1701H13.0208V38.0681H8.82813V20.1701H5.23438ZM20.8073 20.1701V31.7572C21.538 30.5401 22.8677 29.7157 24.401 29.7157V20.1701H20.8073ZM28.5938 20.1701V29.7157H32.1875V20.1701H28.5938ZM36.3802 20.1701V29.7157H39.974V20.1701H36.3802ZM25.599 32.1021C23.9458 32.1021 22.6042 33.4385 22.6042 35.0851V36.8749H48.9583V35.0851C48.9583 33.4385 47.6167 32.1021 45.9635 32.1021H25.599ZM22.6042 39.2612V47.017C22.6042 48.6636 23.9458 50 25.599 50H45.9635C47.6167 50 48.9583 48.6636 48.9583 47.017V39.2612H22.6042Z" fill="black"/>
</svg>
